<?xml version="1.0" encoding="utf-8" standalone="no"?>
<!DOCTYPE svg PUBLIC "-//W3C//DTD SVG 1.1//EN"
  "http://www.w3.org/Graphics/SVG/1.1/DTD/svg11.dtd">
<!-- Created with matplotlib (https://matplotlib.org/) -->
<svg height="263.63625pt" version="1.1" viewBox="0 0 377.449285 263.63625" width="377.449285pt" xmlns="http://www.w3.org/2000/svg" xmlns:xlink="http://www.w3.org/1999/xlink">
 <metadata>
  <rdf:RDF xmlns:cc="http://creativecommons.org/ns#" xmlns:dc="http://purl.org/dc/elements/1.1/" xmlns:rdf="http://www.w3.org/1999/02/22-rdf-syntax-ns#">
   <cc:Work>
    <dc:type rdf:resource="http://purl.org/dc/dcmitype/StillImage"/>
    <dc:date>2020-12-07T18:54:48.900759</dc:date>
    <dc:format>image/svg+xml</dc:format>
    <dc:creator>
     <cc:Agent>
      <dc:title>Matplotlib v3.3.2, https://matplotlib.org/</dc:title>
     </cc:Agent>
    </dc:creator>
   </cc:Work>
  </rdf:RDF>
 </metadata>
 <defs>
  <style type="text/css">*{stroke-linecap:butt;stroke-linejoin:round;}</style>
 </defs>
 <g id="figure_1">
  <g id="patch_1">
   <path d="M 0 263.63625 
L 377.449285 263.63625 
L 377.449285 0 
L 0 0 
z
" style="fill:none;"/>
  </g>
  <g id="axes_1">
   <g id="patch_2">
    <path d="M 28.942188 239.758125 
L 363.742188 239.758125 
L 363.742188 22.318125 
L 28.942188 22.318125 
z
" style="fill:#ffffff;"/>
   </g>
   <g id="matplotlib.axis_1">
    <g id="xtick_1">
     <g id="line2d_1">
      <defs>
       <path d="M 0 0 
L 0 3.5 
" id="m4553b258b0" style="stroke:#000000;stroke-width:0.8;"/>
      </defs>
      <g>
       <use style="stroke:#000000;stroke-width:0.8;" x="44.160369" xlink:href="#m4553b258b0" y="239.758125"/>
      </g>
     </g>
     <g id="text_1">
      <!-- 2020-01 -->
      <g transform="translate(23.268963 254.356563)scale(0.1 -0.1)">
       <defs>
        <path d="M 19.1875 8.296875 
L 53.609375 8.296875 
L 53.609375 0 
L 7.328125 0 
L 7.328125 8.296875 
Q 12.9375 14.109375 22.625 23.890625 
Q 32.328125 33.6875 34.8125 36.53125 
Q 39.546875 41.84375 41.421875 45.53125 
Q 43.3125 49.21875 43.3125 52.78125 
Q 43.3125 58.59375 39.234375 62.25 
Q 35.15625 65.921875 28.609375 65.921875 
Q 23.96875 65.921875 18.8125 64.3125 
Q 13.671875 62.703125 7.8125 59.421875 
L 7.8125 69.390625 
Q 13.765625 71.78125 18.9375 73 
Q 24.125 74.21875 28.421875 74.21875 
Q 39.75 74.21875 46.484375 68.546875 
Q 53.21875 62.890625 53.21875 53.421875 
Q 53.21875 48.921875 51.53125 44.890625 
Q 49.859375 40.875 45.40625 35.40625 
Q 44.1875 33.984375 37.640625 27.21875 
Q 31.109375 20.453125 19.1875 8.296875 
z
" id="DejaVuSans-50"/>
        <path d="M 31.78125 66.40625 
Q 24.171875 66.40625 20.328125 58.90625 
Q 16.5 51.421875 16.5 36.375 
Q 16.5 21.390625 20.328125 13.890625 
Q 24.171875 6.390625 31.78125 6.390625 
Q 39.453125 6.390625 43.28125 13.890625 
Q 47.125 21.390625 47.125 36.375 
Q 47.125 51.421875 43.28125 58.90625 
Q 39.453125 66.40625 31.78125 66.40625 
z
M 31.78125 74.21875 
Q 44.046875 74.21875 50.515625 64.515625 
Q 56.984375 54.828125 56.984375 36.375 
Q 56.984375 17.96875 50.515625 8.265625 
Q 44.046875 -1.421875 31.78125 -1.421875 
Q 19.53125 -1.421875 13.0625 8.265625 
Q 6.59375 17.96875 6.59375 36.375 
Q 6.59375 54.828125 13.0625 64.515625 
Q 19.53125 74.21875 31.78125 74.21875 
z
" id="DejaVuSans-48"/>
        <path d="M 4.890625 31.390625 
L 31.203125 31.390625 
L 31.203125 23.390625 
L 4.890625 23.390625 
z
" id="DejaVuSans-45"/>
        <path d="M 12.40625 8.296875 
L 28.515625 8.296875 
L 28.515625 63.921875 
L 10.984375 60.40625 
L 10.984375 69.390625 
L 28.421875 72.90625 
L 38.28125 72.90625 
L 38.28125 8.296875 
L 54.390625 8.296875 
L 54.390625 0 
L 12.40625 0 
z
" id="DejaVuSans-49"/>
       </defs>
       <use xlink:href="#DejaVuSans-50"/>
       <use x="63.623047" xlink:href="#DejaVuSans-48"/>
       <use x="127.246094" xlink:href="#DejaVuSans-50"/>
       <use x="190.869141" xlink:href="#DejaVuSans-48"/>
       <use x="254.492188" xlink:href="#DejaVuSans-45"/>
       <use x="290.576172" xlink:href="#DejaVuSans-48"/>
       <use x="354.199219" xlink:href="#DejaVuSans-49"/>
      </g>
     </g>
    </g>
    <g id="xtick_2">
     <g id="line2d_2">
      <g>
       <use style="stroke:#000000;stroke-width:0.8;" x="94.192748" xlink:href="#m4553b258b0" y="239.758125"/>
      </g>
     </g>
     <g id="text_2">
      <!-- 2020-03 -->
      <g transform="translate(73.301342 254.356563)scale(0.1 -0.1)">
       <defs>
        <path d="M 40.578125 39.3125 
Q 47.65625 37.796875 51.625 33 
Q 55.609375 28.21875 55.609375 21.1875 
Q 55.609375 10.40625 48.1875 4.484375 
Q 40.765625 -1.421875 27.09375 -1.421875 
Q 22.515625 -1.421875 17.65625 -0.515625 
Q 12.796875 0.390625 7.625 2.203125 
L 7.625 11.71875 
Q 11.71875 9.328125 16.59375 8.109375 
Q 21.484375 6.890625 26.8125 6.890625 
Q 36.078125 6.890625 40.9375 10.546875 
Q 45.796875 14.203125 45.796875 21.1875 
Q 45.796875 27.640625 41.28125 31.265625 
Q 36.765625 34.90625 28.71875 34.90625 
L 20.21875 34.90625 
L 20.21875 43.015625 
L 29.109375 43.015625 
Q 36.375 43.015625 40.234375 45.921875 
Q 44.09375 48.828125 44.09375 54.296875 
Q 44.09375 59.90625 40.109375 62.90625 
Q 36.140625 65.921875 28.71875 65.921875 
Q 24.65625 65.921875 20.015625 65.03125 
Q 15.375 64.15625 9.8125 62.3125 
L 9.8125 71.09375 
Q 15.4375 72.65625 20.34375 73.4375 
Q 25.25 74.21875 29.59375 74.21875 
Q 40.828125 74.21875 47.359375 69.109375 
Q 53.90625 64.015625 53.90625 55.328125 
Q 53.90625 49.265625 50.4375 45.09375 
Q 46.96875 40.921875 40.578125 39.3125 
z
" id="DejaVuSans-51"/>
       </defs>
       <use xlink:href="#DejaVuSans-50"/>
       <use x="63.623047" xlink:href="#DejaVuSans-48"/>
       <use x="127.246094" xlink:href="#DejaVuSans-50"/>
       <use x="190.869141" xlink:href="#DejaVuSans-48"/>
       <use x="254.492188" xlink:href="#DejaVuSans-45"/>
       <use x="290.576172" xlink:href="#DejaVuSans-48"/>
       <use x="354.199219" xlink:href="#DejaVuSans-51"/>
      </g>
     </g>
    </g>
    <g id="xtick_3">
     <g id="line2d_3">
      <g>
       <use style="stroke:#000000;stroke-width:0.8;" x="145.058999" xlink:href="#m4553b258b0" y="239.758125"/>
      </g>
     </g>
     <g id="text_3">
      <!-- 2020-05 -->
      <g transform="translate(124.167593 254.356563)scale(0.1 -0.1)">
       <defs>
        <path d="M 10.796875 72.90625 
L 49.515625 72.90625 
L 49.515625 64.59375 
L 19.828125 64.59375 
L 19.828125 46.734375 
Q 21.96875 47.46875 24.109375 47.828125 
Q 26.265625 48.1875 28.421875 48.1875 
Q 40.625 48.1875 47.75 41.5 
Q 54.890625 34.8125 54.890625 23.390625 
Q 54.890625 11.625 47.5625 5.09375 
Q 40.234375 -1.421875 26.90625 -1.421875 
Q 22.3125 -1.421875 17.546875 -0.640625 
Q 12.796875 0.140625 7.71875 1.703125 
L 7.71875 11.625 
Q 12.109375 9.234375 16.796875 8.0625 
Q 21.484375 6.890625 26.703125 6.890625 
Q 35.15625 6.890625 40.078125 11.328125 
Q 45.015625 15.765625 45.015625 23.390625 
Q 45.015625 31 40.078125 35.4375 
Q 35.15625 39.890625 26.703125 39.890625 
Q 22.75 39.890625 18.8125 39.015625 
Q 14.890625 38.140625 10.796875 36.28125 
z
" id="DejaVuSans-53"/>
       </defs>
       <use xlink:href="#DejaVuSans-50"/>
       <use x="63.623047" xlink:href="#DejaVuSans-48"/>
       <use x="127.246094" xlink:href="#DejaVuSans-50"/>
       <use x="190.869141" xlink:href="#DejaVuSans-48"/>
       <use x="254.492188" xlink:href="#DejaVuSans-45"/>
       <use x="290.576172" xlink:href="#DejaVuSans-48"/>
       <use x="354.199219" xlink:href="#DejaVuSans-53"/>
      </g>
     </g>
    </g>
    <g id="xtick_4">
     <g id="line2d_4">
      <g>
       <use style="stroke:#000000;stroke-width:0.8;" x="195.925251" xlink:href="#m4553b258b0" y="239.758125"/>
      </g>
     </g>
     <g id="text_4">
      <!-- 2020-07 -->
      <g transform="translate(175.033845 254.356563)scale(0.1 -0.1)">
       <defs>
        <path d="M 8.203125 72.90625 
L 55.078125 72.90625 
L 55.078125 68.703125 
L 28.609375 0 
L 18.3125 0 
L 43.21875 64.59375 
L 8.203125 64.59375 
z
" id="DejaVuSans-55"/>
       </defs>
       <use xlink:href="#DejaVuSans-50"/>
       <use x="63.623047" xlink:href="#DejaVuSans-48"/>
       <use x="127.246094" xlink:href="#DejaVuSans-50"/>
       <use x="190.869141" xlink:href="#DejaVuSans-48"/>
       <use x="254.492188" xlink:href="#DejaVuSans-45"/>
       <use x="290.576172" xlink:href="#DejaVuSans-48"/>
       <use x="354.199219" xlink:href="#DejaVuSans-55"/>
      </g>
     </g>
    </g>
    <g id="xtick_5">
     <g id="line2d_5">
      <g>
       <use style="stroke:#000000;stroke-width:0.8;" x="247.625376" xlink:href="#m4553b258b0" y="239.758125"/>
      </g>
     </g>
     <g id="text_5">
      <!-- 2020-09 -->
      <g transform="translate(226.733969 254.356563)scale(0.1 -0.1)">
       <defs>
        <path d="M 10.984375 1.515625 
L 10.984375 10.5 
Q 14.703125 8.734375 18.5 7.8125 
Q 22.3125 6.890625 25.984375 6.890625 
Q 35.75 6.890625 40.890625 13.453125 
Q 46.046875 20.015625 46.78125 33.40625 
Q 43.953125 29.203125 39.59375 26.953125 
Q 35.25 24.703125 29.984375 24.703125 
Q 19.046875 24.703125 12.671875 31.3125 
Q 6.296875 37.9375 6.296875 49.421875 
Q 6.296875 60.640625 12.9375 67.421875 
Q 19.578125 74.21875 30.609375 74.21875 
Q 43.265625 74.21875 49.921875 64.515625 
Q 56.59375 54.828125 56.59375 36.375 
Q 56.59375 19.140625 48.40625 8.859375 
Q 40.234375 -1.421875 26.421875 -1.421875 
Q 22.703125 -1.421875 18.890625 -0.6875 
Q 15.09375 0.046875 10.984375 1.515625 
z
M 30.609375 32.421875 
Q 37.25 32.421875 41.125 36.953125 
Q 45.015625 41.5 45.015625 49.421875 
Q 45.015625 57.28125 41.125 61.84375 
Q 37.25 66.40625 30.609375 66.40625 
Q 23.96875 66.40625 20.09375 61.84375 
Q 16.21875 57.28125 16.21875 49.421875 
Q 16.21875 41.5 20.09375 36.953125 
Q 23.96875 32.421875 30.609375 32.421875 
z
" id="DejaVuSans-57"/>
       </defs>
       <use xlink:href="#DejaVuSans-50"/>
       <use x="63.623047" xlink:href="#DejaVuSans-48"/>
       <use x="127.246094" xlink:href="#DejaVuSans-50"/>
       <use x="190.869141" xlink:href="#DejaVuSans-48"/>
       <use x="254.492188" xlink:href="#DejaVuSans-45"/>
       <use x="290.576172" xlink:href="#DejaVuSans-48"/>
       <use x="354.199219" xlink:href="#DejaVuSans-57"/>
      </g>
     </g>
    </g>
    <g id="xtick_6">
     <g id="line2d_6">
      <g>
       <use style="stroke:#000000;stroke-width:0.8;" x="298.491627" xlink:href="#m4553b258b0" y="239.758125"/>
      </g>
     </g>
     <g id="text_6">
      <!-- 2020-11 -->
      <g transform="translate(277.600221 254.356563)scale(0.1 -0.1)">
       <use xlink:href="#DejaVuSans-50"/>
       <use x="63.623047" xlink:href="#DejaVuSans-48"/>
       <use x="127.246094" xlink:href="#DejaVuSans-50"/>
       <use x="190.869141" xlink:href="#DejaVuSans-48"/>
       <use x="254.492188" xlink:href="#DejaVuSans-45"/>
       <use x="290.576172" xlink:href="#DejaVuSans-49"/>
       <use x="354.199219" xlink:href="#DejaVuSans-49"/>
      </g>
     </g>
    </g>
    <g id="xtick_7">
     <g id="line2d_7">
      <g>
       <use style="stroke:#000000;stroke-width:0.8;" x="349.357879" xlink:href="#m4553b258b0" y="239.758125"/>
      </g>
     </g>
     <g id="text_7">
      <!-- 2021-01 -->
      <g transform="translate(328.466472 254.356563)scale(0.1 -0.1)">
       <use xlink:href="#DejaVuSans-50"/>
       <use x="63.623047" xlink:href="#DejaVuSans-48"/>
       <use x="127.246094" xlink:href="#DejaVuSans-50"/>
       <use x="190.869141" xlink:href="#DejaVuSans-49"/>
       <use x="254.492188" xlink:href="#DejaVuSans-45"/>
       <use x="290.576172" xlink:href="#DejaVuSans-48"/>
       <use x="354.199219" xlink:href="#DejaVuSans-49"/>
      </g>
     </g>
    </g>
   </g>
   <g id="matplotlib.axis_2">
    <g id="ytick_1">
     <g id="line2d_8">
      <defs>
       <path d="M 0 0 
L -3.5 0 
" id="md0df6c0ceb" style="stroke:#000000;stroke-width:0.8;"/>
      </defs>
      <g>
       <use style="stroke:#000000;stroke-width:0.8;" x="28.942188" xlink:href="#md0df6c0ceb" y="215.651438"/>
      </g>
     </g>
     <g id="text_8">
      <!-- −5 -->
      <g transform="translate(7.2 219.450657)scale(0.1 -0.1)">
       <defs>
        <path d="M 10.59375 35.5 
L 73.1875 35.5 
L 73.1875 27.203125 
L 10.59375 27.203125 
z
" id="DejaVuSans-8722"/>
       </defs>
       <use xlink:href="#DejaVuSans-8722"/>
       <use x="83.789062" xlink:href="#DejaVuSans-53"/>
      </g>
     </g>
    </g>
    <g id="ytick_2">
     <g id="line2d_9">
      <g>
       <use style="stroke:#000000;stroke-width:0.8;" x="28.942188" xlink:href="#md0df6c0ceb" y="183.118885"/>
      </g>
     </g>
     <g id="text_9">
      <!-- 0 -->
      <g transform="translate(15.579688 186.918104)scale(0.1 -0.1)">
       <use xlink:href="#DejaVuSans-48"/>
      </g>
     </g>
    </g>
    <g id="ytick_3">
     <g id="line2d_10">
      <g>
       <use style="stroke:#000000;stroke-width:0.8;" x="28.942188" xlink:href="#md0df6c0ceb" y="150.586333"/>
      </g>
     </g>
     <g id="text_10">
      <!-- 5 -->
      <g transform="translate(15.579688 154.385552)scale(0.1 -0.1)">
       <use xlink:href="#DejaVuSans-53"/>
      </g>
     </g>
    </g>
    <g id="ytick_4">
     <g id="line2d_11">
      <g>
       <use style="stroke:#000000;stroke-width:0.8;" x="28.942188" xlink:href="#md0df6c0ceb" y="118.05378"/>
      </g>
     </g>
     <g id="text_11">
      <!-- 10 -->
      <g transform="translate(9.217188 121.852999)scale(0.1 -0.1)">
       <use xlink:href="#DejaVuSans-49"/>
       <use x="63.623047" xlink:href="#DejaVuSans-48"/>
      </g>
     </g>
    </g>
    <g id="ytick_5">
     <g id="line2d_12">
      <g>
       <use style="stroke:#000000;stroke-width:0.8;" x="28.942188" xlink:href="#md0df6c0ceb" y="85.521227"/>
      </g>
     </g>
     <g id="text_12">
      <!-- 15 -->
      <g transform="translate(9.217188 89.320446)scale(0.1 -0.1)">
       <use xlink:href="#DejaVuSans-49"/>
       <use x="63.623047" xlink:href="#DejaVuSans-53"/>
      </g>
     </g>
    </g>
    <g id="ytick_6">
     <g id="line2d_13">
      <g>
       <use style="stroke:#000000;stroke-width:0.8;" x="28.942188" xlink:href="#md0df6c0ceb" y="52.988675"/>
      </g>
     </g>
     <g id="text_13">
      <!-- 20 -->
      <g transform="translate(9.217188 56.787893)scale(0.1 -0.1)">
       <use xlink:href="#DejaVuSans-50"/>
       <use x="63.623047" xlink:href="#DejaVuSans-48"/>
      </g>
     </g>
    </g>
   </g>
   <g id="line2d_14">
    <path clip-path="url(#pf9773a3fc8)" d="M 44.160369 189.625396 
L 44.994242 196.131907 
L 45.828115 189.625396 
L 48.329734 189.625396 
L 49.163607 196.131907 
L 49.99748 196.131907 
L 51.665226 209.144928 
L 54.166845 215.651438 
L 55.000718 209.144928 
L 55.834591 209.144928 
L 57.502337 196.131907 
L 60.003956 189.625396 
L 60.837829 189.625396 
L 63.339448 209.144928 
L 65.841067 215.651438 
L 66.67494 209.144928 
L 67.508813 215.651438 
L 71.678178 215.651438 
L 72.512051 209.144928 
L 73.345923 209.144928 
L 74.179796 202.638417 
L 77.515288 202.638417 
L 80.85078 176.612375 
L 83.352399 176.612375 
L 84.186272 183.118885 
L 85.854018 170.105864 
L 86.687891 176.612375 
L 89.18951 170.105864 
L 90.023383 176.612375 
L 90.857256 176.612375 
L 91.691129 183.118885 
L 92.525002 183.118885 
L 95.026621 176.612375 
L 95.860494 170.105864 
L 96.694367 176.612375 
L 98.362113 176.612375 
L 100.863732 170.105864 
L 101.697605 163.599354 
L 102.531478 163.599354 
L 103.365351 170.105864 
L 104.199224 163.599354 
L 106.700843 170.105864 
L 108.368588 157.092843 
L 109.202461 163.599354 
L 110.036334 157.092843 
L 112.537953 157.092843 
L 114.205699 144.079822 
L 115.873445 157.092843 
L 118.375064 150.586333 
L 119.208937 157.092843 
L 121.710556 137.573312 
L 124.212175 144.079822 
L 125.879921 131.066801 
L 126.713794 131.066801 
L 127.547667 137.573312 
L 135.886397 137.573312 
L 136.72027 144.079822 
L 137.554143 144.079822 
L 138.388016 137.573312 
L 139.221889 137.573312 
L 141.723508 144.079822 
L 142.557381 137.573312 
L 143.391254 137.573312 
L 144.225126 131.066801 
L 145.058999 131.066801 
L 147.560618 137.573312 
L 150.062237 157.092843 
L 150.89611 150.586333 
L 153.397729 157.092843 
L 154.231602 157.092843 
L 155.065475 150.586333 
L 155.899348 157.092843 
L 156.733221 150.586333 
L 159.23484 150.586333 
L 160.068713 144.079822 
L 162.570332 144.079822 
L 165.071951 137.573312 
L 166.739697 124.560291 
L 168.407443 137.573312 
L 170.909062 137.573312 
L 171.742935 144.079822 
L 172.576808 137.573312 
L 173.410681 137.573312 
L 174.244554 144.079822 
L 176.746173 137.573312 
L 179.247791 137.573312 
L 180.081664 131.066801 
L 182.583283 124.560291 
L 184.251029 124.560291 
L 185.918775 111.54727 
L 189.254267 111.54727 
L 190.08814 118.05378 
L 191.755886 105.040759 
L 194.257505 105.040759 
L 195.925251 92.027738 
L 196.759124 98.534248 
L 197.592997 98.534248 
L 200.094616 92.027738 
L 200.928489 92.027738 
L 201.762362 98.534248 
L 202.596235 98.534248 
L 203.430108 105.040759 
L 205.931727 105.040759 
L 207.599473 118.05378 
L 208.433346 111.54727 
L 209.267219 118.05378 
L 213.436584 118.05378 
L 214.270456 124.560291 
L 215.104329 124.560291 
L 217.605948 118.05378 
L 218.439821 118.05378 
L 219.273694 111.54727 
L 220.94144 124.560291 
L 223.443059 131.066801 
L 224.276932 124.560291 
L 225.110805 131.066801 
L 225.944678 124.560291 
L 229.28017 124.560291 
L 230.114043 131.066801 
L 230.947916 124.560291 
L 231.781789 131.066801 
L 232.615662 131.066801 
L 235.117281 124.560291 
L 236.785027 137.573312 
L 237.6189 131.066801 
L 238.452773 137.573312 
L 242.622138 137.573312 
L 243.456011 131.066801 
L 244.289884 137.573312 
L 246.791503 137.573312 
L 247.625376 131.066801 
L 248.459249 131.066801 
L 250.126994 118.05378 
L 253.462486 118.05378 
L 254.296359 111.54727 
L 255.130232 118.05378 
L 258.465724 118.05378 
L 260.13347 105.040759 
L 260.967343 105.040759 
L 261.801216 111.54727 
L 264.302835 105.040759 
L 265.136708 98.534248 
L 265.970581 98.534248 
L 266.804454 105.040759 
L 267.638327 105.040759 
L 270.139946 111.54727 
L 270.973819 111.54727 
L 273.475438 131.066801 
L 275.977057 124.560291 
L 277.644803 124.560291 
L 278.478676 118.05378 
L 279.312549 124.560291 
L 281.814168 131.066801 
L 282.648041 131.066801 
L 283.481914 124.560291 
L 285.149659 137.573312 
L 287.651278 137.573312 
L 289.319024 124.560291 
L 293.488389 124.560291 
L 294.322262 118.05378 
L 295.156135 118.05378 
L 295.990008 111.54727 
L 296.823881 118.05378 
L 299.3255 118.05378 
L 302.660992 92.027738 
L 305.996484 92.027738 
L 306.830357 85.521227 
L 307.66423 92.027738 
L 308.498103 85.521227 
L 310.999722 85.521227 
L 311.833595 92.027738 
L 312.667468 92.027738 
L 314.335214 79.014717 
L 316.836833 72.508206 
L 318.504579 72.508206 
L 320.172324 59.495185 
L 322.673943 52.988675 
L 323.507816 52.988675 
L 324.341689 46.482164 
L 325.175562 52.988675 
L 326.009435 52.988675 
L 328.511054 59.495185 
L 329.344927 52.988675 
L 330.1788 52.988675 
L 331.012673 46.482164 
L 331.846546 46.482164 
L 334.348165 52.988675 
L 335.182038 52.988675 
L 336.015911 46.482164 
L 337.683657 46.482164 
L 340.185276 52.988675 
L 341.019149 52.988675 
L 343.520768 72.508206 
L 346.022387 66.001696 
L 346.85626 59.495185 
L 347.690133 59.495185 
L 348.524006 66.001696 
L 348.524006 66.001696 
" style="fill:none;stroke:#1f77b4;stroke-linecap:square;stroke-width:1.5;"/>
   </g>
   <g id="line2d_15">
    <path clip-path="url(#pf9773a3fc8)" d="M 44.160369 189.625396 
L 44.994242 192.878651 
L 45.828115 191.794233 
L 48.329734 191.252024 
L 49.163607 192.228 
L 49.99748 192.878651 
L 50.831353 194.272904 
L 51.665226 196.131907 
L 54.166845 198.300743 
L 55.000718 199.385162 
L 55.834591 200.272413 
L 56.668464 200.46958 
L 57.502337 200.135913 
L 60.003956 199.385162 
L 60.837829 198.734511 
L 61.671702 198.571848 
L 62.505575 198.811058 
L 63.339448 199.385162 
L 65.841067 200.241282 
L 66.67494 200.686464 
L 68.342686 202.046916 
L 69.176559 203.229918 
L 71.678178 204.807254 
L 72.512051 205.004421 
L 73.345923 205.891672 
L 75.013669 206.483173 
L 77.515288 206.356423 
L 78.349161 205.891672 
L 80.016907 203.525669 
L 80.85078 202.046916 
L 83.352399 201.089248 
L 84.186272 200.272413 
L 85.020145 199.680912 
L 86.687891 197.906409 
L 89.18951 195.822073 
L 90.023383 194.948905 
L 90.857256 193.174402 
L 91.691129 191.9914 
L 92.525002 190.512647 
L 95.026621 187.456559 
L 95.860494 186.667891 
L 96.694367 184.893388 
L 98.362113 181.935884 
L 101.697605 178.682628 
L 102.531478 176.908125 
L 104.199224 174.542122 
L 106.700843 173.82387 
L 107.534716 173.35912 
L 110.036334 170.697365 
L 112.537953 169.796031 
L 113.371826 168.922862 
L 115.039572 166.556859 
L 115.873445 165.669607 
L 118.375064 163.28952 
L 119.208937 163.007853 
L 120.876683 160.641849 
L 121.710556 158.867346 
L 125.046048 155.614091 
L 125.879921 153.839588 
L 126.713794 152.360836 
L 127.547667 151.177834 
L 130.049286 149.037164 
L 130.883159 148.516079 
L 131.717032 147.037327 
L 132.550905 145.854325 
L 133.384778 144.967074 
L 135.886397 143.150321 
L 136.72027 143.192571 
L 138.388016 142.009569 
L 139.221889 141.713818 
L 141.723508 140.67165 
L 142.557381 140.530816 
L 143.391254 139.939316 
L 144.225126 138.756314 
L 145.058999 137.869062 
L 147.560618 137.573312 
L 149.228364 138.164813 
L 150.89611 139.939316 
L 153.397729 141.291318 
L 156.733221 144.079822 
L 159.23484 145.009324 
L 160.068713 144.967074 
L 160.902586 145.262824 
L 162.570332 145.262824 
L 165.071951 145.628991 
L 165.905824 144.967074 
L 166.739697 144.079822 
L 167.57357 143.784072 
L 168.407443 143.784072 
L 170.909062 144.69949 
L 172.576808 144.671323 
L 174.244554 144.079822 
L 176.746173 142.840487 
L 177.580046 142.60107 
L 180.081664 139.939316 
L 183.417156 137.277561 
L 185.084902 134.911557 
L 185.918775 133.432805 
L 188.420394 131.376635 
L 191.755886 127.813546 
L 194.257505 126.10946 
L 195.091378 124.856041 
L 197.592997 118.941032 
L 200.928489 114.504774 
L 202.596235 110.955769 
L 203.430108 109.477016 
L 205.931727 106.899762 
L 206.7656 107.111012 
L 207.599473 106.815262 
L 208.433346 106.223761 
L 209.267219 105.92801 
L 211.768838 105.660427 
L 212.602711 106.223761 
L 213.436584 106.519511 
L 214.270456 107.111012 
L 215.104329 107.406763 
L 217.605948 107.829264 
L 218.439821 108.294014 
L 219.273694 108.589765 
L 220.107567 109.477016 
L 220.94144 110.955769 
L 223.443059 113.096439 
L 224.276932 113.617523 
L 225.110805 115.392026 
L 225.944678 116.870778 
L 226.778551 118.05378 
L 230.114043 120.419784 
L 231.781789 122.194287 
L 232.615662 122.785788 
L 235.951154 123.96879 
L 236.785027 124.856041 
L 237.6189 125.447542 
L 238.452773 126.334793 
L 240.954392 127.038961 
L 241.788265 127.517795 
L 242.622138 128.405047 
L 243.456011 128.996548 
L 244.289884 130.17955 
L 246.791503 131.376635 
L 249.293121 131.362552 
L 250.126994 130.771051 
L 252.628613 130.756967 
L 255.130232 128.996548 
L 255.964105 128.700797 
L 258.465724 127.968463 
L 260.13347 126.334793 
L 261.801216 123.96879 
L 264.302835 122.08162 
L 265.136708 121.011285 
L 265.970581 119.236782 
L 267.638327 116.279277 
L 270.139946 114.335774 
L 270.973819 114.209024 
L 271.807692 113.321772 
L 272.641565 113.026022 
L 273.475438 113.026022 
L 275.977057 112.786605 
L 276.81093 113.321772 
L 277.644803 113.617523 
L 278.478676 113.617523 
L 279.312549 114.209024 
L 281.814168 114.645608 
L 282.648041 115.392026 
L 283.481914 115.687776 
L 284.315787 116.575028 
L 285.149659 118.05378 
L 288.485151 120.419784 
L 289.319024 121.307035 
L 290.98677 123.673039 
L 293.488389 125.489792 
L 294.322262 125.151792 
L 295.156135 125.447542 
L 296.823881 125.447542 
L 299.3255 124.870124 
L 300.159373 124.26454 
L 300.993246 123.377289 
L 301.827119 122.194287 
L 302.660992 120.715534 
L 305.162611 119.293115 
L 305.996484 118.05378 
L 307.66423 114.209024 
L 308.498103 112.434521 
L 310.999722 109.068599 
L 311.833595 108.294014 
L 314.335214 102.083254 
L 317.670706 97.351247 
L 320.172324 89.957485 
L 323.507816 84.338225 
L 324.341689 81.08497 
L 326.009435 76.057212 
L 329.344927 72.508206 
L 330.1788 70.733703 
L 331.846546 66.888947 
L 334.348165 64.142693 
L 335.182038 63.635692 
L 336.015911 61.861189 
L 337.683657 57.720682 
L 340.185276 55.157512 
L 341.019149 55.058928 
L 341.853022 54.467427 
L 342.686895 54.171677 
L 343.520768 54.171677 
L 346.022387 53.918176 
L 347.690133 54.467427 
L 348.524006 55.058928 
L 348.524006 55.058928 
" style="fill:none;stroke:#ff7f0e;stroke-linecap:square;stroke-width:1.5;"/>
   </g>
   <g id="line2d_16">
    <path clip-path="url(#pf9773a3fc8)" d="M 44.994242 183.677056 
L 45.828115 184.281162 
L 48.329734 184.745513 
L 49.163607 185.100475 
L 49.99748 185.751126 
L 50.831353 184.435984 
L 51.665226 182.220402 
L 54.166845 179.897553 
L 55.834591 181.619958 
L 56.668464 182.632778 
L 57.502337 182.889804 
L 60.003956 181.889097 
L 60.837829 181.137695 
L 61.671702 181.521976 
L 62.505575 182.185158 
L 63.339448 182.536085 
L 65.841067 182.246194 
L 66.67494 182.724426 
L 67.508813 182.71325 
L 68.342686 182.82541 
L 69.176559 184.008412 
L 72.512051 186.36376 
L 73.345923 188.502292 
L 75.013669 190.092034 
L 77.515288 189.604753 
L 78.349161 188.972362 
L 79.183034 187.026659 
L 80.016907 183.731102 
L 80.85078 179.361816 
L 84.186272 174.077916 
L 85.020145 171.937058 
L 85.854018 168.565043 
L 86.687891 166.238806 
L 89.18951 161.769657 
L 90.023383 160.722559 
L 90.857256 159.400834 
L 91.691129 158.742842 
L 95.026621 159.145138 
L 95.860494 158.065375 
L 96.694367 159.122093 
L 97.52824 159.834303 
L 98.362113 161.209623 
L 100.863732 162.64921 
L 101.697605 161.000617 
L 102.531478 161.628002 
L 103.365351 162.839476 
L 104.199224 162.238523 
L 106.700843 161.776154 
L 107.534716 160.819459 
L 108.368588 158.247706 
L 109.202461 157.71269 
L 110.036334 155.720089 
L 112.537953 153.607398 
L 113.371826 151.127206 
L 114.205699 147.048999 
L 115.039572 145.032477 
L 115.873445 144.273323 
L 118.375064 143.780319 
L 119.208937 143.786347 
L 120.04281 142.910909 
L 120.876683 140.672147 
L 121.710556 137.929947 
L 124.212175 137.658326 
L 125.046048 135.561963 
L 126.713794 129.22775 
L 127.547667 127.792609 
L 130.049286 126.913205 
L 130.883159 126.378871 
L 131.717032 126.667827 
L 132.550905 126.518744 
L 133.384778 126.004746 
L 135.886397 126.54369 
L 136.72027 126.981313 
L 137.554143 127.611562 
L 139.221889 126.93362 
L 141.723508 127.908903 
L 143.391254 128.199776 
L 144.225126 129.222142 
L 145.058999 129.37158 
L 148.394491 129.37158 
L 149.228364 128.4027 
L 150.062237 126.396023 
L 150.89611 126.898158 
L 153.397729 126.700809 
L 154.231602 126.256997 
L 155.065475 126.571711 
L 155.899348 126.493357 
L 156.733221 127.041778 
L 160.068713 128.265805 
L 160.902586 128.88287 
L 162.570332 128.88287 
L 165.071951 129.217739 
L 165.905824 127.789766 
L 166.739697 124.820216 
L 167.57357 123.915576 
L 168.407443 123.915576 
L 170.909062 125.884641 
L 171.742935 126.308009 
L 172.576808 126.308009 
L 173.410681 125.76443 
L 174.244554 125.676631 
L 176.746173 125.084007 
L 177.580046 125.12758 
L 178.413919 125.378679 
L 179.247791 125.935191 
L 180.081664 125.159117 
L 182.583283 124.563894 
L 183.417156 123.092105 
L 184.251029 122.222632 
L 185.084902 119.535783 
L 185.918775 115.67839 
L 188.420394 112.306369 
L 189.254267 110.03395 
L 190.08814 108.747156 
L 190.922013 106.505714 
L 191.755886 103.468413 
L 194.257505 99.790721 
L 195.091378 96.608129 
L 195.925251 91.891539 
L 197.592997 87.49994 
L 200.094616 84.925041 
L 200.928489 82.953128 
L 201.762362 82.242072 
L 202.596235 82.021987 
L 203.430108 83.024919 
L 205.931727 85.460693 
L 207.599473 86.66285 
L 209.267219 88.287506 
L 211.768838 87.768227 
L 212.602711 87.980601 
L 213.436584 87.712456 
L 214.270456 86.87692 
L 215.104329 86.329779 
L 217.605948 85.833243 
L 218.439821 86.389836 
L 219.273694 86.693955 
L 220.107567 87.707117 
L 220.94144 89.740119 
L 224.276932 91.847624 
L 225.110805 94.656925 
L 225.944678 98.627618 
L 226.778551 101.495778 
L 229.28017 106.807141 
L 230.114043 106.774298 
L 230.947916 109.427827 
L 231.781789 110.454747 
L 232.615662 110.616986 
L 235.117281 112.523343 
L 235.951154 112.674816 
L 236.785027 112.493004 
L 237.6189 113.20367 
L 238.452773 113.520456 
L 240.954392 113.098504 
L 241.788265 113.190931 
L 242.622138 114.116609 
L 243.456011 115.445402 
L 244.289884 118.613007 
L 246.791503 120.904435 
L 247.625376 121.141877 
L 249.293121 121.141877 
L 250.126994 119.078438 
L 252.628613 118.089347 
L 253.462486 116.682609 
L 254.296359 114.069903 
L 255.130232 112.740133 
L 255.964105 111.879256 
L 258.465724 110.211983 
L 259.299597 108.53229 
L 260.967343 102.466692 
L 261.801216 101.28369 
L 264.302835 98.630657 
L 265.970581 93.636727 
L 266.804454 92.847347 
L 267.638327 92.45923 
L 270.139946 93.12358 
L 270.973819 93.473923 
L 271.807692 95.280647 
L 272.641565 96.020278 
L 273.475438 96.020278 
L 275.977057 95.513542 
L 276.81093 95.73329 
L 277.644803 95.485203 
L 279.312549 95.519269 
L 281.814168 94.227582 
L 283.481914 94.231618 
L 284.315787 94.240015 
L 285.149659 94.637228 
L 287.651278 95.518017 
L 288.485151 96.142496 
L 289.319024 97.976733 
L 290.152897 101.474008 
L 290.98677 105.581193 
L 293.488389 111.665508 
L 294.322262 111.293082 
L 295.156135 112.561895 
L 296.823881 112.561895 
L 299.3255 111.550873 
L 300.159373 110.079084 
L 300.993246 106.997334 
L 301.827119 102.707644 
L 302.660992 97.416674 
L 305.162611 92.428539 
L 305.996484 89.374478 
L 306.830357 84.776462 
L 307.66423 82.16746 
L 308.498103 78.525566 
L 311.833595 74.995885 
L 312.667468 74.952164 
L 313.501341 73.755609 
L 314.335214 71.307876 
L 316.836833 68.29472 
L 317.670706 65.822842 
L 318.504579 64.209864 
L 319.338452 61.277395 
L 320.172324 57.733412 
L 322.673943 53.566066 
L 324.341689 46.448777 
L 326.009435 42.764587 
L 328.511054 41.222736 
L 329.344927 39.882836 
L 330.1788 38.311187 
L 331.846546 33.944946 
L 335.182038 33.171547 
L 336.015911 32.201761 
L 336.849784 32.708938 
L 337.683657 34.241603 
L 340.185276 37.537798 
L 341.019149 37.838997 
L 342.686895 39.896071 
L 343.520768 39.896071 
L 346.022387 39.494421 
L 346.85626 39.896071 
L 347.690133 40.025895 
L 348.524006 39.826855 
L 348.524006 39.826855 
" style="fill:none;stroke:#2ca02c;stroke-linecap:square;stroke-width:1.5;"/>
   </g>
   <g id="line2d_17">
    <path clip-path="url(#pf9773a3fc8)" d="M 44.994242 202.080247 
L 45.828115 199.307304 
L 48.329734 197.758534 
L 49.163607 199.355525 
L 49.99748 200.006176 
L 50.831353 204.109823 
L 51.665226 210.043411 
L 54.166845 216.703934 
L 55.000718 218.042202 
L 55.834591 218.924869 
L 56.668464 218.306383 
L 57.502337 217.382022 
L 60.003956 216.881227 
L 60.837829 216.331327 
L 61.671702 215.62172 
L 62.505575 215.436958 
L 63.339448 216.234238 
L 65.841067 218.236369 
L 66.67494 218.648502 
L 67.508813 220.084914 
L 69.176559 222.451424 
L 71.678178 223.813988 
L 72.512051 223.645082 
L 73.345923 223.281053 
L 75.013669 222.874312 
L 77.515288 223.108093 
L 78.349161 222.810983 
L 79.183034 222.390682 
L 80.016907 223.320235 
L 80.85078 224.732016 
L 83.352399 226.756508 
L 84.186272 226.466911 
L 85.020145 227.424766 
L 85.854018 229.022278 
L 86.687891 229.574012 
L 89.18951 229.874489 
L 90.023383 229.17525 
L 90.857256 226.947969 
L 91.691129 225.239958 
L 92.525002 222.209173 
L 95.026621 215.767981 
L 95.860494 215.270407 
L 96.694367 210.664683 
L 97.52824 206.994969 
L 98.362113 202.662144 
L 100.863732 196.152549 
L 101.697605 196.364639 
L 102.531478 192.188249 
L 103.365351 188.610771 
L 104.199224 186.845721 
L 106.700843 185.871587 
L 107.534716 185.898781 
L 108.368588 186.69603 
L 109.202461 185.456544 
L 110.036334 185.674642 
L 112.537953 185.984663 
L 113.371826 186.718519 
L 114.205699 188.430722 
L 115.039572 188.08124 
L 115.873445 187.065892 
L 118.375064 182.798721 
L 119.208937 182.229359 
L 120.04281 180.738793 
L 120.876683 180.611551 
L 121.710556 179.804745 
L 124.212175 175.288025 
L 125.046048 175.666219 
L 125.879921 175.372482 
L 126.713794 175.493922 
L 127.547667 174.563059 
L 130.049286 171.161122 
L 130.883159 170.653288 
L 131.717032 167.406827 
L 132.550905 165.189906 
L 133.384778 163.929401 
L 135.886397 159.756952 
L 136.72027 159.403829 
L 137.554143 157.590578 
L 138.388016 156.702715 
L 139.221889 156.494017 
L 141.723508 153.434397 
L 142.557381 153.055854 
L 143.391254 151.678855 
L 144.225126 148.290486 
L 145.058999 146.366544 
L 147.560618 145.803469 
L 148.394491 146.366544 
L 149.228364 147.926925 
L 150.062237 151.708105 
L 150.89611 152.980473 
L 153.397729 155.881827 
L 154.231602 157.762141 
L 155.065475 158.630429 
L 155.899348 160.483285 
L 156.733221 161.117866 
L 159.23484 162.118212 
L 160.068713 161.668343 
L 162.570332 161.642778 
L 165.905824 162.144381 
L 166.739697 163.339428 
L 167.57357 163.652568 
L 168.407443 163.652568 
L 170.909062 163.514339 
L 171.742935 163.034637 
L 173.410681 162.986716 
L 174.244554 162.483013 
L 177.580046 160.074559 
L 178.413919 158.048957 
L 179.247791 155.717943 
L 180.081664 154.719514 
L 182.583283 151.202397 
L 183.417156 151.463018 
L 184.251029 149.966486 
L 185.084902 150.287332 
L 185.918775 151.18722 
L 188.420394 150.446901 
L 189.254267 150.91665 
L 190.08814 150.428942 
L 190.922013 150.895881 
L 191.755886 152.158679 
L 194.257505 152.428198 
L 195.925251 153.680036 
L 196.759124 151.734106 
L 200.094616 146.225178 
L 200.928489 146.056421 
L 201.762362 143.21847 
L 202.596235 139.88955 
L 203.430108 135.929113 
L 205.931727 128.338831 
L 206.7656 128.127042 
L 207.599473 126.967674 
L 208.433346 124.903707 
L 209.267219 123.568515 
L 211.768838 123.552626 
L 213.436584 125.326567 
L 214.270456 127.345105 
L 215.104329 128.483746 
L 218.439821 130.198193 
L 219.273694 130.485575 
L 220.107567 131.246915 
L 223.443059 134.834324 
L 224.276932 135.387422 
L 225.110805 136.127127 
L 225.944678 135.113938 
L 229.28017 133.018425 
L 230.114043 134.06527 
L 230.947916 133.186244 
L 231.781789 133.933826 
L 232.615662 134.95459 
L 235.117281 134.738235 
L 235.951154 135.262763 
L 236.785027 137.219078 
L 237.6189 137.691415 
L 238.452773 139.149131 
L 240.954392 140.979418 
L 242.622138 142.693484 
L 243.456011 142.547693 
L 244.289884 141.746093 
L 246.791503 141.848835 
L 247.625376 141.583227 
L 249.293121 141.583227 
L 250.126994 142.463663 
L 253.462486 143.67649 
L 254.296359 145.106195 
L 255.130232 145.252963 
L 255.964105 145.522339 
L 258.465724 145.724942 
L 259.299597 145.911799 
L 260.13347 147.272193 
L 260.967343 147.836892 
L 261.801216 146.65389 
L 264.302835 145.532582 
L 265.136708 146.002763 
L 265.970581 144.836837 
L 266.804454 142.668712 
L 267.638327 140.099325 
L 270.139946 135.547968 
L 270.973819 134.944125 
L 271.807692 131.362898 
L 272.641565 130.031766 
L 275.977057 130.059668 
L 277.644803 131.749843 
L 278.478676 131.749843 
L 279.312549 132.898778 
L 281.814168 135.063634 
L 282.648041 136.51244 
L 283.481914 137.143935 
L 284.315787 138.910041 
L 285.149659 141.470332 
L 287.651278 144.30755 
L 288.485151 144.697072 
L 289.319024 144.637338 
L 290.152897 143.506067 
L 290.98677 141.764885 
L 293.488389 139.314077 
L 294.322262 139.010501 
L 295.156135 138.33319 
L 296.823881 138.33319 
L 299.3255 138.189376 
L 300.159373 138.449997 
L 300.993246 139.757243 
L 301.827119 141.68093 
L 302.660992 144.014395 
L 305.996484 146.733082 
L 306.830357 147.190592 
L 307.66423 146.250587 
L 308.498103 146.343476 
L 310.999722 142.366728 
L 311.833595 141.592144 
L 312.667468 137.495358 
L 313.501341 134.551407 
L 314.335214 132.858633 
L 316.836833 128.773777 
L 317.670706 128.879651 
L 318.504579 125.760621 
L 320.172324 122.181558 
L 322.673943 118.096057 
L 323.507816 118.799366 
L 326.009435 109.349837 
L 328.511054 105.65268 
L 329.344927 105.133577 
L 331.012673 101.204452 
L 331.846546 99.832949 
L 334.348165 94.976375 
L 335.182038 94.099837 
L 336.015911 91.520617 
L 336.849784 86.872933 
L 337.683657 81.199762 
L 340.185276 72.777225 
L 341.019149 72.278859 
L 341.853022 69.985573 
L 342.686895 68.447282 
L 346.85626 68.447282 
L 347.690133 68.908959 
L 348.524006 70.291001 
L 348.524006 70.291001 
" style="fill:none;stroke:#d62728;stroke-linecap:square;stroke-width:1.5;"/>
   </g>
   <g id="patch_3">
    <path d="M 28.942188 239.758125 
L 28.942188 22.318125 
" style="fill:none;stroke:#000000;stroke-linecap:square;stroke-linejoin:miter;stroke-width:0.8;"/>
   </g>
   <g id="patch_4">
    <path d="M 363.742188 239.758125 
L 363.742188 22.318125 
" style="fill:none;stroke:#000000;stroke-linecap:square;stroke-linejoin:miter;stroke-width:0.8;"/>
   </g>
   <g id="patch_5">
    <path d="M 28.942188 239.758125 
L 363.742188 239.758125 
" style="fill:none;stroke:#000000;stroke-linecap:square;stroke-linejoin:miter;stroke-width:0.8;"/>
   </g>
   <g id="patch_6">
    <path d="M 28.942188 22.318125 
L 363.742188 22.318125 
" style="fill:none;stroke:#000000;stroke-linecap:square;stroke-linejoin:miter;stroke-width:0.8;"/>
   </g>
   <g id="text_14">
    <!-- BOLL LINES -->
    <g transform="translate(161.812188 16.318125)scale(0.12 -0.12)">
     <defs>
      <path d="M 19.671875 34.8125 
L 19.671875 8.109375 
L 35.5 8.109375 
Q 43.453125 8.109375 47.28125 11.40625 
Q 51.125 14.703125 51.125 21.484375 
Q 51.125 28.328125 47.28125 31.5625 
Q 43.453125 34.8125 35.5 34.8125 
z
M 19.671875 64.796875 
L 19.671875 42.828125 
L 34.28125 42.828125 
Q 41.5 42.828125 45.03125 45.53125 
Q 48.578125 48.25 48.578125 53.8125 
Q 48.578125 59.328125 45.03125 62.0625 
Q 41.5 64.796875 34.28125 64.796875 
z
M 9.8125 72.90625 
L 35.015625 72.90625 
Q 46.296875 72.90625 52.390625 68.21875 
Q 58.5 63.53125 58.5 54.890625 
Q 58.5 48.1875 55.375 44.234375 
Q 52.25 40.28125 46.1875 39.3125 
Q 53.46875 37.75 57.5 32.78125 
Q 61.53125 27.828125 61.53125 20.40625 
Q 61.53125 10.640625 54.890625 5.3125 
Q 48.25 0 35.984375 0 
L 9.8125 0 
z
" id="DejaVuSans-66"/>
      <path d="M 39.40625 66.21875 
Q 28.65625 66.21875 22.328125 58.203125 
Q 16.015625 50.203125 16.015625 36.375 
Q 16.015625 22.609375 22.328125 14.59375 
Q 28.65625 6.59375 39.40625 6.59375 
Q 50.140625 6.59375 56.421875 14.59375 
Q 62.703125 22.609375 62.703125 36.375 
Q 62.703125 50.203125 56.421875 58.203125 
Q 50.140625 66.21875 39.40625 66.21875 
z
M 39.40625 74.21875 
Q 54.734375 74.21875 63.90625 63.9375 
Q 73.09375 53.65625 73.09375 36.375 
Q 73.09375 19.140625 63.90625 8.859375 
Q 54.734375 -1.421875 39.40625 -1.421875 
Q 24.03125 -1.421875 14.8125 8.828125 
Q 5.609375 19.09375 5.609375 36.375 
Q 5.609375 53.65625 14.8125 63.9375 
Q 24.03125 74.21875 39.40625 74.21875 
z
" id="DejaVuSans-79"/>
      <path d="M 9.8125 72.90625 
L 19.671875 72.90625 
L 19.671875 8.296875 
L 55.171875 8.296875 
L 55.171875 0 
L 9.8125 0 
z
" id="DejaVuSans-76"/>
      <path id="DejaVuSans-32"/>
      <path d="M 9.8125 72.90625 
L 19.671875 72.90625 
L 19.671875 0 
L 9.8125 0 
z
" id="DejaVuSans-73"/>
      <path d="M 9.8125 72.90625 
L 23.09375 72.90625 
L 55.421875 11.921875 
L 55.421875 72.90625 
L 64.984375 72.90625 
L 64.984375 0 
L 51.703125 0 
L 19.390625 60.984375 
L 19.390625 0 
L 9.8125 0 
z
" id="DejaVuSans-78"/>
      <path d="M 9.8125 72.90625 
L 55.90625 72.90625 
L 55.90625 64.59375 
L 19.671875 64.59375 
L 19.671875 43.015625 
L 54.390625 43.015625 
L 54.390625 34.71875 
L 19.671875 34.71875 
L 19.671875 8.296875 
L 56.78125 8.296875 
L 56.78125 0 
L 9.8125 0 
z
" id="DejaVuSans-69"/>
      <path d="M 53.515625 70.515625 
L 53.515625 60.890625 
Q 47.90625 63.578125 42.921875 64.890625 
Q 37.9375 66.21875 33.296875 66.21875 
Q 25.25 66.21875 20.875 63.09375 
Q 16.5 59.96875 16.5 54.203125 
Q 16.5 49.359375 19.40625 46.890625 
Q 22.3125 44.4375 30.421875 42.921875 
L 36.375 41.703125 
Q 47.40625 39.59375 52.65625 34.296875 
Q 57.90625 29 57.90625 20.125 
Q 57.90625 9.515625 50.796875 4.046875 
Q 43.703125 -1.421875 29.984375 -1.421875 
Q 24.8125 -1.421875 18.96875 -0.25 
Q 13.140625 0.921875 6.890625 3.21875 
L 6.890625 13.375 
Q 12.890625 10.015625 18.65625 8.296875 
Q 24.421875 6.59375 29.984375 6.59375 
Q 38.421875 6.59375 43.015625 9.90625 
Q 47.609375 13.234375 47.609375 19.390625 
Q 47.609375 24.75 44.3125 27.78125 
Q 41.015625 30.8125 33.5 32.328125 
L 27.484375 33.5 
Q 16.453125 35.6875 11.515625 40.375 
Q 6.59375 45.0625 6.59375 53.421875 
Q 6.59375 63.09375 13.40625 68.65625 
Q 20.21875 74.21875 32.171875 74.21875 
Q 37.3125 74.21875 42.625 73.28125 
Q 47.953125 72.359375 53.515625 70.515625 
z
" id="DejaVuSans-83"/>
     </defs>
     <use xlink:href="#DejaVuSans-66"/>
     <use x="66.853516" xlink:href="#DejaVuSans-79"/>
     <use x="145.564453" xlink:href="#DejaVuSans-76"/>
     <use x="201.277344" xlink:href="#DejaVuSans-76"/>
     <use x="256.990234" xlink:href="#DejaVuSans-32"/>
     <use x="288.777344" xlink:href="#DejaVuSans-76"/>
     <use x="344.490234" xlink:href="#DejaVuSans-73"/>
     <use x="373.982422" xlink:href="#DejaVuSans-78"/>
     <use x="448.787109" xlink:href="#DejaVuSans-69"/>
     <use x="511.970703" xlink:href="#DejaVuSans-83"/>
    </g>
   </g>
  </g>
 </g>
 <defs>
  <clipPath id="pf9773a3fc8">
   <rect height="217.44" width="334.8" x="28.942188" y="22.318125"/>
  </clipPath>
 </defs>
</svg>
